#N canvas 1 56 791 550 12;
#X obj 82 147 bng 15 250 50 0 empty empty empty 17 7 0 10 -262144 -1
-1;
#X obj 192 283 delwrite~ \$0-del 1000;
#X obj 593 121 vd~ \$0-del;
#X obj 84 520 dac~;
#X obj 593 162 *~ 0.75;
#X floatatom 593 89 5 0 0 2 time - -;
#X floatatom 296 61 0 0 127 2 feedback - -;
#X obj 82 285 *~;
#X obj 200 116 pack 0 50;
#X obj 200 145 vline~;
#X obj 593 264 *~;
#X floatatom 713 78 0 0 127 2 wet - -;
#X obj 688 212 pack 0 50;
#X obj 688 241 vline~;
#X floatatom 200 63 0 0 127 2 dry - -;
#X floatatom 295 146 5 0 0 0 - - -;
#X obj 82 171 rock.click~;
#X obj 296 117 rock.scale 0 127 0 1 -3.5;
#X obj 200 87 rock.m2a;
#X obj 688 112 rock.m2a;
#X connect 0 0 16 0;
#X connect 2 0 4 0;
#X connect 4 0 1 0;
#X connect 4 0 10 0;
#X connect 5 0 2 0;
#X connect 6 0 17 0;
#X connect 7 0 3 0;
#X connect 7 0 3 1;
#X connect 8 0 9 0;
#X connect 9 0 7 1;
#X connect 10 0 3 0;
#X connect 10 0 3 1;
#X connect 11 0 19 0;
#X connect 12 0 13 0;
#X connect 13 0 10 1;
#X connect 14 0 18 0;
#X connect 16 0 1 0;
#X connect 16 0 7 0;
#X connect 17 0 15 0;
#X connect 18 0 8 0;
#X connect 19 0 12 0;
