#N canvas 0 24 1086 822 12;
#N canvas 0 0 450 300 (subpatch) 0;
#X array \$0-sample 352800 float 0 black black;
#X coords 0 1 352799 -1 200 140 1;
#X restore 792 79 graph;
#X obj 425 259 tabwrite~ \$0-sample;
#X obj 425 105 bng 66 250 50 0 empty empty empty 17 7 0 10 -262144
-1 -1;
#X obj 438 184 adc~ 1;
#X obj 234 55 array size \$0-sample;
#X obj 234 31 bng 15 250 50 0 empty empty empty 17 7 0 10 -262144 -1
-1;
#X floatatom 234 84 0 0 0 0 - - -;
#X obj 266 176 random;
#X obj 266 143 t b f;
#X floatatom 266 214 0 0 0 0 - - -;
#X obj 234 113 t f f;
#X obj 234 252 -;
#X obj 234 281 t b f;
#X obj 234 316 random;
#X floatatom 234 354 0 0 0 0 - - -;
#X obj 234 413 t b f;
#X obj 234 442 delay;
#X msg 234 481 stop;
#X msg 386 482 start \$1;
#X obj 253 519 print;
#X obj 234 383 rock.sampstoms;
#X msg 809 324 8;
#X obj 809 353 * 44100;
#X obj 809 382 print;
#X connect 2 0 1 0;
#X connect 3 0 1 0;
#X connect 4 0 6 0;
#X connect 5 0 4 0;
#X connect 6 0 10 0;
#X connect 7 0 9 0;
#X connect 8 0 7 0;
#X connect 8 1 7 1;
#X connect 9 0 11 1;
#X connect 9 0 18 0;
#X connect 10 0 11 0;
#X connect 10 1 8 0;
#X connect 11 0 12 0;
#X connect 12 0 13 0;
#X connect 12 1 13 1;
#X connect 13 0 14 0;
#X connect 14 0 20 0;
#X connect 15 0 16 0;
#X connect 15 1 16 1;
#X connect 16 0 17 0;
#X connect 17 0 19 0;
#X connect 18 0 19 0;
#X connect 20 0 15 0;
#X connect 21 0 22 0;
#X connect 22 0 23 0;
