#N canvas 0 24 1086 822 12;
#N canvas 0 0 450 300 (subpatch) 0;
#X array \$0-sample 44100 float 0 black black;
#X coords 0 1 44099 -1 200 140 1;
#X restore 792 79 graph;
#X obj 425 259 tabwrite~ \$0-sample;
#X obj 425 105 bng 66 250 50 0 empty empty empty 17 7 0 10 -262144
-1 -1;
#X obj 438 184 adc~ 1;
#X obj 344 335 array size \$0-sample;
#X obj 344 311 bng 15 250 50 0 empty empty empty 17 7 0 10 -262144
-1 -1;
#X floatatom 344 364 0 0 0 0 - - -;
#X connect 2 0 1 0;
#X connect 3 0 1 0;
#X connect 4 0 6 0;
#X connect 5 0 4 0;
