#N canvas 92 55 857 607 12;
#X obj 552 211 array define \$0-sample;
#X obj 229 252 tabwrite~ \$0-sample;
#X obj 229 107 bng 69 250 50 0 empty empty empty 17 7 0 10 -262144
-1 -1;
#X obj 552 167 array size \$0-sample;
#X obj 584 108 samplerate~;
#X obj 552 22 loadbang;
#X obj 552 51 t b b;
#X obj 552 78 f \$1;
#X obj 552 137 *;
#X connect 2 0 1 0;
#X connect 4 0 8 1;
#X connect 5 0 6 0;
#X connect 6 0 7 0;
#X connect 6 1 4 0;
#X connect 7 0 8 0;
#X connect 8 0 3 0;
