#N canvas 468 23 593 520 12;
#X obj 105 94 inlet~;
#X obj 105 493 outlet~;
#X obj 105 272 *~;
#X text 53 370 offset;
#X obj 275 148 noise~;
#X obj 257 312 samphold~;
#X obj 105 462 *~;
#X obj 105 370 +~;
#X obj 257 245 +~;
#X obj 275 177 *~ 8000;
#X floatatom 412 148 5 0 0 0 glitch_size - -, f 5;
#X obj 254 407 *~ 256;
#X obj 105 156 wrap~;
#X obj 412 52 inlet glitchSize;
#X obj 257 117 sig~ 24000;
#X obj 214 34 inlet fragment_size;
#X obj 105 406 tabread4~ \$2;
#X obj 254 436 tabread4~ \$3;
#X obj 105 123 +~ \$1;
#X connect 0 0 18 0;
#X connect 2 0 7 0;
#X connect 4 0 9 0;
#X connect 5 0 7 1;
#X connect 6 0 1 0;
#X connect 7 0 16 0;
#X connect 8 0 5 0;
#X connect 9 0 8 1;
#X connect 10 0 9 1;
#X connect 11 0 17 0;
#X connect 12 0 2 0;
#X connect 12 0 5 1;
#X connect 12 0 11 0;
#X connect 13 0 10 0;
#X connect 14 0 8 0;
#X connect 15 0 2 1;
#X connect 16 0 6 0;
#X connect 17 0 6 1;
#X connect 18 0 12 0;
